<?xml version="1.0" encoding="UTF-8" standalone="no"?>
<!-- Created with Inkscape (http://www.inkscape.org/) -->

<svg
   width="210mm"
   height="297mm"
   viewBox="0 0 210 297"
   version="1.1"
   id="svg5"
   inkscape:version="1.2.1 (9c6d41e410, 2022-07-14)"
   sodipodi:docname="Solution_spatule.svg"
   xml:space="preserve"
   xmlns:inkscape="http://www.inkscape.org/namespaces/inkscape"
   xmlns:sodipodi="http://sodipodi.sourceforge.net/DTD/sodipodi-0.dtd"
   xmlns="http://www.w3.org/2000/svg"
   xmlns:svg="http://www.w3.org/2000/svg"><sodipodi:namedview
     id="namedview7"
     pagecolor="#ffffff"
     bordercolor="#cccccc"
     borderopacity="1"
     inkscape:showpageshadow="0"
     inkscape:pageopacity="1"
     inkscape:pagecheckerboard="0"
     inkscape:deskcolor="#d1d1d1"
     inkscape:document-units="mm"
     showgrid="false"
     inkscape:zoom="1.4142136"
     inkscape:cx="278.95362"
     inkscape:cy="326.68333"
     inkscape:window-width="1920"
     inkscape:window-height="1017"
     inkscape:window-x="-8"
     inkscape:window-y="-8"
     inkscape:window-maximized="1"
     inkscape:current-layer="layer1" /><defs
     id="defs2" /><g
     inkscape:label="Layer 1"
     inkscape:groupmode="layer"
     id="layer1"><path
       id="path306"
       style="fill:#000000;stroke-width:0.264583"
       d="M 12.923242 20.582206 C 11.486862 20.592511 10.290408 21.186363 9.1203735 22.258073 C 6.3407142 24.804142 6.4465963 27.455521 9.5177653 32.201652 C 14.767086 40.313864 36.247308 61.866813 54.407015 77.243347 C 56.211545 78.771316 58.768958 80.97398 60.090389 82.138139 C 61.411818 83.302308 63.385825 85.017423 64.477201 85.949792 C 65.56858 86.882172 67.709394 88.787167 69.234534 90.183126 C 70.759672 91.579084 72.664675 93.321512 73.467867 94.055241 C 98.474099 116.89877 101.25517 120.43321 103.22419 131.87205 C 105.10363 142.7905 107.77501 147.58434 117.23987 157.02297 C 124.83191 164.59397 130.72946 168.60851 136.44387 170.09556 C 145.05531 172.3365 148.7879 170.15254 162.63762 154.76936 C 163.87455 153.39549 165.20117 151.93522 165.58576 151.5246 C 167.0631 149.94724 167.38082 150.38412 157.93713 141.00586 C 153.17366 136.27541 147.90362 131.09618 146.2257 129.49649 C 144.54778 127.8968 141.39031 124.85685 139.20959 122.74083 C 131.99607 115.74134 130.08349 114.90627 120.43658 114.54598 C 113.33241 114.28066 108.47061 112.98496 105.87571 110.66508 C 105.57977 110.4005 104.44867 109.4147 103.36217 108.47452 C 101.32857 106.71478 98.761637 104.1682 91.200118 96.408069 C 87.388875 92.496723 85.107488 90.088689 77.555473 82.005847 C 75.422446 79.722889 67.614894 71.004843 63.010624 65.764978 C 60.979671 63.45366 57.892695 59.941308 56.150578 57.95977 C 53.226255 54.633543 35.532138 36.714463 32.202169 33.706986 C 21.83213 24.341238 16.59399 20.555873 12.923242 20.582206 z M 14.329358 24.946281 A 2.6686444 2.6686444 0 0 1 16.997929 27.614852 A 2.6686444 2.6686444 0 0 1 14.329358 30.283423 A 2.6686444 2.6686444 0 0 1 11.660787 27.614852 A 2.6686444 2.6686444 0 0 1 14.329358 24.946281 z " /></g></svg>
